<svg version="1.0" xmlns="http://www.w3.org/2000/svg"
 viewBox="0 0 2600.000000 2600.000000"
 preserveAspectRatio="xMidYMid meet">
<g transform="translate(0.000000,2600.000000) scale(0.100000,-0.100000)"
fill="#000000" stroke="none">
<path d="M10645 21903 c-133 -4 -371 -23 -525 -44 -201 -26 -400 -61 -400 -70
0 -4 42 -40 93 -80 1052 -826 2175 -1931 3118 -3069 1291 -1557 2368 -3279
3149 -5035 611 -1375 1321 -3176 1895 -4810 260 -738 695 -2039 695 -2076 0
-32 275 -75 405 -64 138 12 214 38 453 156 238 117 665 318 865 409 64 29 117
57 117 61 0 5 -36 69 -80 144 -353 599 -738 1318 -1020 1905 -602 1252 -1028
2399 -1359 3665 -183 701 -230 880 -312 1178 -798 2917 -1465 4584 -2228 5562
-246 316 -598 671 -761 767 -993 591 -2135 1045 -3245 1292 -405 90 -608 116
-860 109z"/>
<path d="M9009 21615 c-865 -266 -1795 -720 -2749 -1342 -265 -173 -280 -183
-263 -190 27 -10 655 -390 863 -523 1975 -1255 3540 -2678 4826 -4385 847
-1126 1608 -2449 2172 -3774 l66 -156 202 -207 c303 -310 615 -657 854 -948
l77 -95 -34 -40 c-47 -54 -78 -118 -104 -212 -28 -101 -69 -188 -124 -260 -50
-67 -93 -102 -167 -141 -47 -24 -64 -27 -148 -27 -86 0 -101 3 -160 31 -36 17
-101 61 -144 98 -94 78 -161 107 -268 114 -196 12 -359 -103 -423 -300 -62
-187 -160 -320 -283 -380 -61 -30 -75 -33 -162 -33 -88 0 -100 2 -164 35 -90
45 -177 132 -240 240 -28 46 -66 102 -85 123 -131 145 -349 179 -520 80 -24
-14 -75 -55 -115 -91 -102 -94 -157 -117 -276 -117 -84 0 -102 3 -152 28 -126
62 -202 146 -288 317 -64 127 -128 198 -219 243 -62 30 -72 32 -176 32 l-110
0 -114 -55 c-111 -54 -116 -55 -201 -55 -79 0 -92 3 -162 38 -108 53 -200 152
-263 285 -26 53 -52 108 -58 121 -18 37 -85 109 -131 141 -112 76 -267 91
-396 36 -93 -40 -213 -46 -292 -16 -115 43 -228 151 -293 280 -43 84 -64 156
-80 265 -23 154 -86 260 -201 336 -46 31 -151 59 -218 59 -80 0 -124 -13 -221
-63 -78 -41 -82 -42 -180 -42 -81 0 -109 4 -145 21 -151 71 -269 218 -330 409
-18 55 -24 107 -30 245 -5 117 -12 189 -23 216 -38 102 -116 188 -215 236
l-67 33 -180 0 c-176 1 -181 1 -238 29 -80 39 -150 97 -204 169 -145 196 -188
451 -118 712 22 79 26 116 23 176 -10 178 -139 330 -321 379 -60 16 -152 75
-208 132 -123 127 -185 282 -196 488 -8 151 12 251 72 377 46 93 79 133 229
270 39 36 66 72 89 120 30 63 32 76 32 168 -1 82 -5 109 -23 149 -12 27 -21
51 -18 53 5 5 306 -63 589 -133 754 -187 1452 -414 2121 -689 113 -46 219 -91
235 -100 60 -31 57 -27 -127 185 -499 570 -1179 1168 -1902 1672 -945 658
-2159 1287 -3322 1722 l-68 25 -115 -127 c-333 -369 -530 -689 -605 -980 -143
-557 171 -953 918 -1158 158 -43 307 -71 687 -129 165 -25 347 -53 405 -63
l105 -18 37 -104 c21 -58 55 -141 77 -185 l38 -81 -39 -57 c-144 -211 -241
-517 -255 -802 -16 -353 92 -732 288 -1010 77 -108 219 -254 313 -323 l69 -50
3 -158 c5 -366 111 -688 313 -959 106 -142 262 -283 406 -367 87 -51 249 -118
332 -138 l51 -12 18 -71 c66 -277 206 -529 404 -728 247 -248 527 -373 872
-386 l137 -6 11 -31 c14 -42 113 -208 168 -281 72 -95 189 -211 282 -280 221
-163 439 -240 718 -252 l142 -6 52 -66 c218 -279 522 -458 864 -507 103 -15
135 -16 252 -5 l133 12 21 -28 c47 -64 229 -232 308 -284 112 -75 189 -113
315 -155 262 -87 537 -83 793 12 l93 35 67 -59 c169 -149 357 -245 587 -298
97 -23 356 -26 450 -6 316 69 601 249 781 496 l20 28 125 -31 c401 -102 805 3
1122 290 71 64 174 185 222 261 l27 44 72 -13 c39 -7 89 -13 111 -13 39 -1 44
-6 170 -153 696 -810 1045 -1158 1570 -1562 260 -200 695 -481 695 -448 0 15
-159 498 -307 933 -633 1859 -1226 3411 -1952 5107 -234 548 -339 779 -535
1178 -546 1110 -1199 2181 -1975 3235 -1096 1489 -2390 2849 -3756 3946 -117
94 -454 354 -457 353 -2 0 -82 -24 -179 -54z"/>
<path d="M5390 19664 c-344 -256 -661 -509 -969 -773 -74 -63 -179 -150 -235
-194 -79 -63 -238 -194 -299 -247 -5 -4 63 -36 150 -70 1435 -572 2774 -1333
3808 -2164 772 -621 1374 -1255 1920 -2021 l49 -70 296 -147 c1039 -519 2027
-1167 2913 -1910 64 -55 117 -96 117 -93 0 15 -339 677 -451 880 -999 1818
-2239 3353 -3794 4695 -865 747 -1939 1501 -3070 2155 -93 54 -180 104 -191
112 -20 13 -37 2 -244 -153z"/>
<path d="M16239 19387 c169 -280 416 -760 565 -1097 521 -1181 1003 -2678
1550 -4815 167 -652 226 -865 368 -1314 406 -1293 982 -2600 1761 -3996 180
-324 408 -715 416 -715 4 0 79 32 166 71 119 53 870 375 1163 500 30 12 28 15
-49 125 -796 1137 -1476 2405 -1994 3719 -402 1018 -715 2061 -991 3300 -67
299 -250 1202 -285 1402 -12 71 -15 77 -142 245 -665 885 -1447 1720 -2257
2413 -200 171 -326 275 -334 275 -3 0 25 -51 63 -113z"/>
<path d="M19490 15762 c0 -19 125 -593 180 -827 566 -2407 1388 -4364 2603
-6195 184 -277 368 -540 377 -540 5 0 129 50 276 111 230 95 275 117 314 153
25 24 68 58 95 77 28 18 89 71 136 118 310 310 274 673 -120 1181 -105 135
-259 307 -496 553 -521 540 -564 588 -757 858 -622 868 -1270 1996 -1950 3394
-132 270 -336 627 -568 990 -93 146 -90 142 -90 127z"/>
</g>
</svg>
